<svg width="10" height="10" viewBox="0 0 10 10" fill="none" xmlns="http://www.w3.org/2000/svg">
<path d="M5.00001 2.5C3.62001 2.5 2.5 3.62001 2.5 5.00001C2.5 6.38 3.62001 7.49999 5.00001 7.49999C6.38002 7.49999 7.50003 6.37998 7.50003 4.99998C7.50003 3.61998 6.38002 2.5 5.00001 2.5Z" fill="#622E16"/>
<path d="M4.99999 0C2.23751 0 0 2.23751 0 4.99999C0 7.76247 2.23751 9.99998 4.99999 9.99998C7.76247 9.99998 10 7.76249 10 4.99999C10 2.23748 7.76249 0 4.99999 0ZM4.99999 8.99999C2.79 8.99999 0.999984 7.21 0.999984 4.99999C0.999984 2.78997 2.79 1.00001 4.99999 1.00001C7.20998 1.00001 8.99999 2.79 8.99999 4.99999C8.99999 7.20998 7.21 8.99999 4.99999 8.99999Z" fill="#622E16"/>
</svg>
