<?xml version="1.0" encoding="utf-8"?>
<!-- Generator: Adobe Illustrator 22.1.0, SVG Export Plug-In . SVG Version: 6.00 Build 0)  -->
<svg version="1.1" id="Слой_1" xmlns="http://www.w3.org/2000/svg" xmlns:xlink="http://www.w3.org/1999/xlink" x="0px" y="0px"
	 viewBox="0 0 261.7 225" style="enable-background:new 0 0 261.7 225;" xml:space="preserve">
<style type="text/css">
	.st0{fill:none;stroke:#000000;stroke-width:10;stroke-miterlimit:10;}
</style>
<g>
	<path class="st0" d="M227.4,156.1h16.1c7.4,0,13.4-6,13.4-13.4V18.8c0-7.4-6-13.4-13.4-13.4h-225c-7.4,0-13.4,6-13.4,13.4v123.9
		c0,7.4,6,13.4,13.4,13.4h80.4"/>
	<polyline class="st0" points="256.9,75.4 5.1,75.4 5.1,37.5 256.9,37.5 	"/>
	<path class="st0" d="M163.1,97.2L163.1,97.2c-14.8,0-26.8,12-26.8,26.8v16.1h53.6V124C189.9,109.2,177.9,97.2,163.1,97.2z"/>
	<path class="st0" d="M209.4,220.4H117c-1.1,0-2-0.9-2-2V142c0-1.1,0.9-2,2-2h92.4c1.1,0,2,0.9,2,2v76.4
		C211.4,219.5,210.5,220.4,209.4,220.4z"/>
	<circle class="st0" cx="163.1" cy="172.2" r="5.5"/>
	<line class="st0" x1="163.1" y1="167.5" x2="163.1" y2="199"/>
	<line class="st0" x1="72.1" y1="104.7" x2="98.9" y2="104.7"/>
	<line class="st0" x1="29.2" y1="104.7" x2="56" y2="104.7"/>
</g>
</svg>
