<?xml version="1.0" encoding="utf-8"?>
<!-- Generator: Adobe Illustrator 22.1.0, SVG Export Plug-In . SVG Version: 6.00 Build 0)  -->
<svg version="1.1" id="Layer_1" xmlns="http://www.w3.org/2000/svg" xmlns:xlink="http://www.w3.org/1999/xlink" x="0px" y="0px"
	 viewBox="0 0 4124.5 2958.9" style="enable-background:new 0 0 4124.5 2958.9;" xml:space="preserve">
<style type="text/css">
	.st0{fill:#FFFFFF;}
	.st1{fill:#91B93F;}
</style>
<rect y="0" class="st0" width="4124.5" height="2958.9"/>
<g>
	<path class="st1" d="M3183,1882.9c-74.2,0-134.5,60.3-134.5,134.5c0,74.1,60.3,134.5,134.5,134.5s134.5-60.3,134.5-134.5
		C3317.5,1943.2,3257.1,1882.9,3183,1882.9L3183,1882.9z"/>
	<path class="st1" d="M2107,806.9c-74.2,0-134.5,60.3-134.5,134.5c0,74.1,60.3,134.5,134.5,134.5c74.1,0,134.5-60.3,134.5-134.5
		S2181.2,806.9,2107,806.9L2107,806.9z"/>
	<path class="st1" d="M3989.9,0H1165.6v403.5c0,74.2-60.3,134.5-134.5,134.5s-134.5-60.3-134.5-134.5V0H134.5C60.3,0,0,60.2,0,134.5
		v2689.9c0,74.2,60.3,134.5,134.5,134.5h762.1v-403.5c0-74.3,60.3-134.5,134.5-134.5s134.5,60.2,134.5,134.5v403.5H3990
		c74.2,0,134.5-60.3,134.5-134.5v-2690C4124.5,60.2,4064.2,0,3989.9,0L3989.9,0z M1165.6,2017.4c0,74.3-60.3,134.5-134.5,134.5
		s-134.5-60.2-134.5-134.5v-269c0-74.2,60.3-134.5,134.5-134.5c74.3,0,134.5,60.3,134.5,134.5V2017.4z M1165.6,1210.4
		c0,74.3-60.3,134.5-134.5,134.5s-134.5-60.3-134.5-134.5v-269c0-74.3,60.3-134.5,134.5-134.5c74.3,0,134.5,60.2,134.5,134.5V1210.4
		z M1703.6,941.4c0-222.5,181-403.5,403.5-403.5s403.4,181,403.4,403.5s-181,403.4-403.4,403.4
		C1884.5,1344.9,1703.6,1163.9,1703.6,941.4L1703.6,941.4z M2074.4,2184.6c-34.4,0-68.8-13.1-95.1-39.4
		c-52.5-52.6-52.5-137.6,0-190.2L3120.5,813.7c52.5-52.5,137.7-52.5,190.2,0c52.6,52.6,52.6,137.7,0,190.2L2169.5,2145.2
		C2143.2,2171.5,2108.8,2184.6,2074.4,2184.6L2074.4,2184.6z M3183,2420.9c-222.5,0-403.5-181-403.5-403.5s181-403.5,403.5-403.5
		s403.5,181,403.5,403.5C3586.4,2239.8,3405.5,2420.9,3183,2420.9L3183,2420.9z"/>
</g>
</svg>
