<svg width="18" height="18" viewBox="0 0 18 18" fill="none" xmlns="http://www.w3.org/2000/svg">
<g clip-path="url(#clip0)">
<path d="M9.99442 9.001L17.7941 1.20132C18.0687 0.926718 18.0687 0.4815 17.7941 0.20693C17.5195 -0.0676395 17.0742 -0.0676747 16.7997 0.20693L8.99999 8.00661L1.20035 0.20693C0.925742 -0.0676747 0.480523 -0.0676747 0.205954 0.20693C-0.0686161 0.481535 -0.0686512 0.926753 0.205954 1.20132L8.0056 9.00097L0.205954 16.8006C-0.0686512 17.0753 -0.0686512 17.5205 0.205954 17.795C0.343239 17.9323 0.523203 18.001 0.703168 18.001C0.883132 18.001 1.06306 17.9323 1.20038 17.795L8.99999 9.9954L16.7996 17.795C16.9369 17.9323 17.1169 18.001 17.2969 18.001C17.4768 18.001 17.6567 17.9323 17.7941 17.795C18.0687 17.5204 18.0687 17.0752 17.7941 16.8006L9.99442 9.001Z" fill="white"/>
</g>
<defs>
<clipPath id="clip0">
<rect width="18" height="18" fill="white"/>
</clipPath>
</defs>
</svg>
