<?xml version="1.0" encoding="utf-8"?>
<!-- Generator: Adobe Illustrator 22.1.0, SVG Export Plug-In . SVG Version: 6.00 Build 0)  -->
<svg version="1.1" id="Слой_1" xmlns="http://www.w3.org/2000/svg" xmlns:xlink="http://www.w3.org/1999/xlink" x="0px" y="0px"
	 viewBox="0 0 251 250" style="enable-background:new 0 0 251 250;" xml:space="preserve">
<style type="text/css">
	.st0{fill:none;stroke:#000000;stroke-width:10;stroke-miterlimit:10;}
</style>
<g>
	<g>
		<polyline class="st0" points="71,87.3 71,77.5 90.3,61.8 161.7,61.8 181,77.5 181,87.3 		"/>
		<rect x="90.2" y="40.2" class="st0" width="70.7" height="21.6"/>
		<polyline class="st0" points="86,100.2 86,150.2 110.3,150.2 110.3,120.2 141.7,120.2 141.7,150.2 166,150.2 166,100.2 		"/>
		<path class="st0" d="M98.5,81.1v5.1c0,7.6-6.2,13.8-13.8,13.8l0,0c-7.6,0-13.8-6.2-13.8-13.8v-5.1"/>
		<path class="st0" d="M126,81.1v5.1c0,7.6-6.2,13.8-13.8,13.8l0,0c-7.6,0-13.8-6.2-13.8-13.8v-5.1"/>
		<path class="st0" d="M153.5,81.1v5.1c0,7.6-6.2,13.8-13.8,13.8l0,0c-7.6,0-13.8-6.2-13.8-13.8v-5.1"/>
		<path class="st0" d="M181,81.1v5.1c0,7.6-6.2,13.8-13.8,13.8l0,0c-7.6,0-13.8-6.2-13.8-13.8v-5.1"/>
	</g>
	<path class="st0" d="M211,87.7c0,79-85,137.5-85,137.5S41,161.7,41,87.7c0-45.6,38.1-82.5,85-82.5S211,42.1,211,87.7z"/>
	<path class="st0" d="M191.5,191.6c32.8,5.2,54.5,14.2,54.5,24.4c0,15.1-47.5,27.6-108.2,29.1c-3.9,0.1-7.8,0.1-11.8,0.1
		c-3.7,0-7.4-0.1-11-0.1l0,0C53.9,243.7,6,231.2,6,216c0-10.4,22.6-19.6,56.5-24.8"/>
</g>
</svg>
