<svg width="18" height="18" viewBox="0 0 18 18" fill="none" xmlns="http://www.w3.org/2000/svg">
<g clip-path="url(#clip0)">
<path d="M17.1027 15.5356H5.06613C4.57004 15.5356 4.16797 15.1335 4.16797 14.6374C4.16797 14.1413 4.57004 13.7393 5.06613 13.7393H17.1024C17.5984 13.7393 18.0005 14.1413 18.0005 14.6374C18.0005 15.1335 17.5987 15.5356 17.1027 15.5356Z" fill="white"/>
<path d="M17.1027 9.89788H5.06613C4.57004 9.89788 4.16797 9.4958 4.16797 8.99972C4.16797 8.50364 4.57004 8.10156 5.06613 8.10156H17.1024C17.5984 8.10156 18.0005 8.50364 18.0005 8.99972C18.0008 9.4958 17.5987 9.89788 17.1027 9.89788Z" fill="white"/>
<path d="M17.1027 4.26018H5.06613C4.57004 4.26018 4.16797 3.85811 4.16797 3.36203C4.16797 2.86594 4.57004 2.46387 5.06613 2.46387H17.1024C17.5984 2.46387 18.0005 2.86594 18.0005 3.36203C18.0005 3.85811 17.5987 4.26018 17.1027 4.26018Z" fill="white"/>
<path d="M1.20623 4.63804C1.87241 4.63804 2.41245 4.09799 2.41245 3.43181C2.41245 2.76563 1.87241 2.22559 1.20623 2.22559C0.540046 2.22559 0 2.76563 0 3.43181C0 4.09799 0.540046 4.63804 1.20623 4.63804Z" fill="white"/>
<path d="M1.20623 10.2064C1.87241 10.2064 2.41245 9.66635 2.41245 9.00017C2.41245 8.33399 1.87241 7.79395 1.20623 7.79395C0.540046 7.79395 0 8.33399 0 9.00017C0 9.66635 0.540046 10.2064 1.20623 10.2064Z" fill="white"/>
<path d="M1.20623 15.7748C1.87241 15.7748 2.41245 15.2347 2.41245 14.5685C2.41245 13.9024 1.87241 13.3623 1.20623 13.3623C0.540046 13.3623 0 13.9024 0 14.5685C0 15.2347 0.540046 15.7748 1.20623 15.7748Z" fill="white"/>
</g>
<defs>
<clipPath id="clip0">
<rect width="18" height="18" fill="white"/>
</clipPath>
</defs>
</svg>
