<?xml version="1.0" encoding="utf-8"?>
<!-- Generator: Adobe Illustrator 22.1.0, SVG Export Plug-In . SVG Version: 6.00 Build 0)  -->
<svg version="1.1" id="Слой_1" xmlns="http://www.w3.org/2000/svg" xmlns:xlink="http://www.w3.org/1999/xlink" x="0px" y="0px"
	 viewBox="0 0 249.8 249.8" style="enable-background:new 0 0 249.8 249.8;" xml:space="preserve">
<style type="text/css">
	.st0{fill:none;stroke:#000000;stroke-width:10;stroke-miterlimit:10;}
</style>
<g>
	<g>
		<path class="st0" d="M212.5,140v92.5c0,6.9-5.6,12.5-12.5,12.5H50c-6.9,0-12.5-5.6-12.5-12.5V140"/>
		<polyline class="st0" points="190,140 190,205 60,205 60,140 		"/>
		<line class="st0" x1="110" y1="225" x2="140" y2="225"/>
	</g>
	<polyline class="st0" points="5,100 5,80 35.4,40 217.1,40 245,79.2 245,99.2 	"/>
	<path class="st0" d="M210,5H40c-2.8,0-5,2.2-5,5v30h180V10C215,7.2,212.8,5,210,5z"/>
	<line class="st0" x1="100" y1="80" x2="110" y2="40"/>
	<line class="st0" x1="50" y1="80" x2="70" y2="40"/>
	<line class="st0" x1="150" y1="80" x2="140" y2="40"/>
	<line class="st0" x1="200" y1="80" x2="180" y2="40"/>
	<line class="st0" x1="240" y1="80" x2="10" y2="80"/>
	<g>
		<path class="st0" d="M53,95v6c0,13.3-10.7,24-24,24l0,0c-13.3,0-24-10.7-24-24V90"/>
		<path class="st0" d="M101,95v6c0,13.3-10.7,24-24,24l0,0c-13.3,0-24-10.7-24-24v-6"/>
		<path class="st0" d="M149,95v6c0,13.3-10.7,24-24,24l0,0c-13.3,0-24-10.7-24-24v-6"/>
		<path class="st0" d="M197,95v6c0,13.3-10.7,24-24,24l0,0c-13.3,0-24-10.7-24-24v-6"/>
		<path class="st0" d="M245,90v11c0,13.3-10.7,24-24,24l0,0c-13.3,0-24-10.7-24-24v-6"/>
	</g>
</g>
</svg>
